<svg xmlns:xlink="http://www.w3.org/1999/xlink" xmlns="http://www.w3.org/2000/svg" fill="none" height="48" viewBox="0 0 157 48" width="157"><g fill="#2768ff"><path d="m24 0c-13.2344 0-24 10.7666-24 24s10.7656 24 24 24 24-10.7666 24-24-10.7656-24-24-24zm0 46c-12.1309 0-22.00003-9.8691-22.00003-22s9.86913-22.00003 22.00003-22.00003 22 9.86913 22 22.00003-9.8691 22-22 22z"/><path d="m19 10h-6c-1.6543 0-3 1.3457-3 3v6c0 1.6543 1.3457 3 3 3h6c1.6543 0 3-1.3457 3-3v-6c0-1.6543-1.3457-3-3-3zm1 9c0 .5517-.4493 1.0001-1.0001 1.0001h-6c-.5507 0-1-.4483-1-1.0001v-6c0-.5517.4493-1 1-1h6c.5508 0 1.0001.4482 1.0001 1z"/><path d="m35 10h-6c-1.6543 0-3 1.3457-3 3v6c0 1.6543 1.3457 3 3 3h6c1.6543 0 3-1.3457 3-3v-6c0-1.6543-1.3457-3-3-3zm1 9c0 .5517-.4492 1.0001-1 1.0001h-6c-.5508 0-1.0001-.4483-1.0001-1.0001v-6c0-.5517.4493-1 1.0001-1h6c.5508 0 1 .4482 1 1z"/><path d="m19 26h-6c-1.6543 0-3 1.3457-3 3v6c0 1.6543 1.3457 3 3 3h6c1.6543 0 3-1.3457 3-3v-6c0-1.6542-1.3457-3-3-3zm1 9c0 .5517-.4493 1-1.0001 1h-6c-.5507 0-1-.4482-1-1v-6c0-.5517.4493-1.0001 1-1.0001h6c.5508 0 1.0001.4483 1.0001 1.0001z"/><path d="m35 26h-6c-1.6543 0-3 1.3457-3 3v6c0 1.6543 1.3457 3 3 3h6c1.6543 0 3-1.3457 3-3v-6c0-1.6542-1.3457-3-3-3zm1 9c0 .5517-.4492 1-1 1h-6c-.5508 0-1.0001-.4482-1.0001-1v-6c0-.5517.4493-1.0001 1.0001-1.0001h6c.5508 0 1 .4483 1 1.0001z"/><path d="m74.0508 28.8281h-11.6192l-2.6367 7.1719h-2.2676l9.6856-25.5938h2.0566l9.6856 25.5938h-2.25zm-10.9512-1.8457h10.2656l-5.1328-13.9394zm34.4356-.2988c0 2.9648-.6563 5.3203-1.9688 7.0664-1.3125 1.7344-3.0703 2.6016-5.2734 2.6016-2.6016 0-4.5938-.9141-5.9766-2.7422v9.7031h-2.0918v-26.332h1.9512l.1054 2.6894c1.3711-2.0273 3.3575-3.041 5.959-3.041 2.2735 0 4.0547.8613 5.3438 2.584 1.3008 1.7226 1.9512 4.1133 1.9512 7.1719zm-2.1094-.3691c0-2.4258-.4981-4.3418-1.4942-5.7481-.9961-1.4062-2.3847-2.1094-4.166-2.1094-1.289 0-2.3965.3106-3.3222.9317-.9258.6211-1.6348 1.5234-2.127 2.707v9.1231c.5039 1.0898 1.2246 1.9218 2.1621 2.496.9375.5743 2.0449.8614 3.3223.8614 1.7695 0 3.1465-.7032 4.1308-2.1094.9961-1.418 1.4942-3.4688 1.4942-6.1523zm22.0782.3691c0 2.9648-.656 5.3203-1.969 7.0664-1.312 1.7344-3.07 2.6016-5.273 2.6016-2.602 0-4.594-.9141-5.977-2.7422v9.7031h-2.092v-26.332h1.952l.105 2.6894c1.371-2.0273 3.357-3.041 5.959-3.041 2.273 0 4.055.8613 5.344 2.584 1.301 1.7226 1.951 4.1133 1.951 7.1719zm-2.109-.3691c0-2.4258-.499-4.3418-1.495-5.7481-.996-1.4062-2.384-2.1094-4.166-2.1094-1.289 0-2.396.3106-3.322.9317s-1.635 1.5234-2.127 2.707v9.1231c.504 1.0898 1.225 1.9218 2.162 2.496.938.5743 2.045.8614 3.323.8614 1.769 0 3.146-.7032 4.13-2.1094.996-1.418 1.495-3.4688 1.495-6.1523zm9.14 9.6855h-2.109v-19.0195h2.109zm-2.478-24.5215c0-.3984.129-.7324.386-1.0019.258-.2813.61-.4219 1.055-.4219s.797.1406 1.055.4219c.269.2695.404.6035.404 1.0019 0 .3985-.135.7324-.404 1.002-.258.2695-.61.4043-1.055.4043s-.797-.1348-1.055-.4043c-.257-.2696-.386-.6035-.386-1.002zm9.72 24.5215v-17.2969h-3.146v-1.7226h3.146v-2.3028c0-1.9453.493-3.4394 1.477-4.4824.996-1.04296 2.379-1.56444 4.148-1.56444.797 0 1.541.09961 2.233.29883l-.158 1.75781c-.586-.1406-1.225-.2109-1.916-.2109-1.161 0-2.063.3632-2.707 1.0898-.645.7149-.967 1.7344-.967 3.0586v2.3555h4.535v1.7226h-4.535v17.2969zm16.436-3.0234 5.555-15.9961h2.267l-8.121 22.2539-.422.9844c-1.043 2.3085-2.654 3.4628-4.834 3.4628-.504 0-1.043-.082-1.617-.2461l-.018-1.7402 1.09.1055c1.032 0 1.864-.2578 2.496-.7735.645-.5039 1.19-1.3769 1.635-2.6191l.932-2.5664-7.172-18.8613h2.303z"/></g></svg>