<svg xmlns="http://www.w3.org/2000/svg" xmlns:xlink="http://www.w3.org/1999/xlink" fill="none" height="720" viewBox="0 0 1440 720" width="1440"><clipPath id="a"><path d="m0 0h1440v720h-1440z"/></clipPath><g clip-path="url(#a)"><path d="m1207.91 441.794c-43.26-.988-95.94-1.031-129.74 17.264-115.216 62.311-49.28 198.13-49.1 198.449-.2-.387-.27-.592-.29-.66" stroke="#eaeaff" stroke-linecap="round" stroke-linejoin="round" stroke-width="4"/><path d="m1356.74 422.869c-24.66 8.154-50.1 13.918-75.88 17.226" stroke="#eaeaff" stroke-linecap="round" stroke-linejoin="round" stroke-width="4"/><path d="m925.173 636.252c-11.809-59.371 1.996-127.207 15.406-158.291 16.751-38.888 45.025-72.757 83.971-100.727 50.22-36.005 122.73-34.393 180.97-33.056 22.74.549 44.23.973 60.41-1.029 37.48-4.689 75.44-16.707 109.79-34.726 40.08-21.013 75.3-50.035 103.53-85.402 32.77-40.915 56.79-90.392 71.31-147.2111 16.49-64.2493 20.84-138.382 13.11-220.2189" stroke="#eaeaff" stroke-linecap="round" stroke-linejoin="round" stroke-width="4"/><path d="m985.33 497.418c-.897 1.877-1.726 3.732-2.533 5.655-10.645 24.75-15.543 52.316-14.485 81.951 1.873 51.345 20.8 90.887 21.002 91.275" stroke="#eaeaff" stroke-linecap="round" stroke-linejoin="round" stroke-width="4"/><path d="m675.979 505.614c-2.922-29.332-1.711-58.949 3.559-87.919 5.13-28.245 14.158-55.642 26.83-81.351 12.534-25.438 28.552-48.986 47.685-69.92 19.248-21.047 41.564-39.164 66.194-53.651" stroke="#eaeaff" stroke-linecap="round" stroke-linejoin="round" stroke-width="4"/><path d="m707.164 619.561c-6.91-44.575-6.983-89.935-.182-134.58 6.564-43.058 19.656-84.837 38.906-123.933 18.974-38.552 43.807-73.947 73.763-104.737 30.413-31.24 65.673-57.333 104.479-77.177" stroke="#eaeaff" stroke-linecap="round" stroke-linejoin="round" stroke-width="4"/><path d="m779.852 721.473s-110.887-272.558 87.157-448.59c145.151-129.038 265.181-107.583 334.891-118.502 81.91-12.841 230.52-26.637 180.66-278.902" stroke="#eaeaff" stroke-linecap="round" stroke-linejoin="round" stroke-width="4"/><path d="m1060.75 219.748c34.39-8.369 69.83-11.713 105.2-9.904" stroke="#eaeaff" stroke-linecap="round" stroke-linejoin="round" stroke-width="4"/><path d="m963.621 257.915c-29.956 16.669-57.465 37.603-81.57 62.039-23.785 24.256-43.664 51.701-58.52 81.819-14.811 30.028-24.607 63.865-29.511 99.513-4.905 35.648-5.032 73.219-.506 110.715 2.579 21.429 6.618 42.65 12.079 63.499" stroke="#eaeaff" stroke-linecap="round" stroke-linejoin="round" stroke-width="4"/><path d="m1060.26 574.966c-.03-12.827 2.82-25.835 9.4-39.221 6.49-13.205 14.65-23.105 24.19-30.428s20.46-12.229 32.4-15.423c11.94-3.195 25.02-4.723 38.92-5.382 13.89-.658 28.51-.494 43.72-.37 18.41.218 37.4.395 56.66-.719 19.26-1.115 38.77-3.748 58.17-9.061" stroke="#eaeaff" stroke-linecap="round" stroke-linejoin="round" stroke-width="4"/><path d="m1398.26 354.874c-38.74 20.275-81.69 33.91-124.1 39.217-19.29 2.409-42.32 1.88-66.65 1.319-52-1.173-130.6-9.418-183.16 48.34" stroke="#eaeaff" stroke-linecap="round" stroke-linejoin="round" stroke-width="4"/><path d="m1354.92 267.526c34.8-18.242 65.49-43.532 90.04-74.23" stroke="#eaeaff" stroke-linecap="round" stroke-linejoin="round" stroke-width="4"/><path d="m877.936 544.127c5.756-97.618 53.518-207.811 227.734-242.83 34.34-6.917 69.25-3.522 99.57-2.866" stroke="#eaeaff" stroke-linecap="round" stroke-linejoin="round" stroke-width="4"/><path d="m1410.58 163.526c24.85-30.945 43.14-69.0491 54.46-113.2717 13.78-53.78283 17.3-117.0707 10.6-188.0693" stroke="#eaeaff" stroke-linecap="round" stroke-linejoin="round" stroke-width="4"/><path d="m1096.08 256.383c48.8-13.951 161.9 16.324 237.94-29.8" stroke="#eaeaff" stroke-linecap="round" stroke-linejoin="round" stroke-width="4"/><path d="m863.855 733.1c-3.585-7.294-18.701-50.188-26.228-104.758-4.619-33.614-5.705-66.11-3.261-96.806 3.158-39.385 12.289-75.725 27.046-108.001 18.603-40.849 47.228-76.417 83.219-103.276" stroke="#eaeaff" stroke-linecap="round" stroke-linejoin="round" stroke-width="4"/><path d="m1376.27 133.734c20.82-25.938 36.29-58.3672 46.02-96.3369" stroke="#eaeaff" stroke-linecap="round" stroke-linejoin="round" stroke-width="4"/><g fill="#7786ff"><path d="m762.929 454.062c-.504-1.546-2.165-2.393-3.711-1.892-1.545.502-2.389 2.162-1.885 3.708s2.166 2.393 3.711 1.892c1.545-.502 2.389-2.162 1.885-3.708z"/><path d="m767.076 433.913c-.504-1.546-2.165-2.393-3.71-1.891-1.546.501-2.389 2.161-1.885 3.708.504 1.546 2.165 2.393 3.71 1.891 1.545-.501 2.389-2.161 1.885-3.708z"/><path d="m764.582 444.087c-.504-1.546-2.165-2.393-3.71-1.892-1.546.501-2.39 2.162-1.886 3.708.505 1.546 2.166 2.393 3.711 1.892 1.545-.502 2.389-2.162 1.885-3.708z"/><path d="m907.072 241.154c-.505-1.547-2.166-2.394-3.711-1.892-1.545.501-2.389 2.161-1.885 3.708.504 1.546 2.165 2.393 3.71 1.892 1.546-.502 2.39-2.162 1.886-3.708z"/><path d="m923.697 228.962c-.504-1.547-2.165-2.393-3.71-1.892s-2.389 2.162-1.885 3.708 2.165 2.393 3.71 1.892c1.545-.502 2.389-2.162 1.885-3.708z"/><path d="m915.057 234.862c-.504-1.546-2.166-2.393-3.711-1.892-1.545.502-2.389 2.162-1.885 3.708.504 1.547 2.165 2.393 3.711 1.892 1.545-.501 2.389-2.161 1.885-3.708z"/><path d="m864.419 416.492c-1.625.006-2.936 1.297-2.927 2.883.008 1.586 1.333 2.866 2.958 2.86 1.626-.006 2.936-1.296 2.928-2.882-.009-1.586-1.333-2.867-2.959-2.861z"/><path d="m873.345 398.166c-1.625.006-2.936 1.297-2.928 2.883.009 1.586 1.334 2.867 2.959 2.861s2.936-1.297 2.928-2.883c-.009-1.586-1.334-2.867-2.959-2.861z"/><path d="m868.516 407.341c-1.625.006-2.936 1.297-2.927 2.883s1.333 2.867 2.958 2.861c1.626-.006 2.937-1.297 2.928-2.883s-1.333-2.867-2.959-2.861z"/><path d="m1047.78 479.915c-1.5-.636-3.22.032-3.83 1.492-.62 1.46.09 3.158 1.59 3.794s3.21-.032 3.83-1.492-.1-3.158-1.59-3.794z"/><path d="m1063.11 466.446c-1.5-.635-3.21.033-3.83 1.492-.62 1.46.1 3.159 1.59 3.794 1.5.636 3.22-.032 3.83-1.492.62-1.459-.09-3.158-1.59-3.794z"/><path d="m1055.03 473.026c-1.49-.636-3.21.032-3.83 1.492-.61 1.46.1 3.158 1.6 3.794 1.49.636 3.21-.032 3.82-1.492.62-1.46-.09-3.159-1.59-3.794z"/><path d="m1170.96 440.884c-.76-1.436-2.52-1.996-3.92-1.251-1.4.744-1.91 2.511-1.14 3.946.76 1.436 2.52 1.996 3.92 1.251 1.39-.744 1.91-2.511 1.14-3.946z"/><path d="m1191.32 440.396c-.76-1.436-2.52-1.996-3.92-1.251-1.4.744-1.91 2.511-1.14 3.947.76 1.435 2.52 1.995 3.91 1.251 1.4-.745 1.92-2.512 1.15-3.947z"/><path d="m1180.95 440.285c-.76-1.435-2.52-1.995-3.92-1.251s-1.91 2.511-1.14 3.947c.76 1.435 2.52 1.995 3.92 1.251 1.39-.745 1.91-2.512 1.14-3.947z"/><path d="m1177.64 156.816c-.5-1.546-2.16-2.393-3.71-1.892-1.54.502-2.39 2.162-1.88 3.708.5 1.547 2.16 2.394 3.71 1.892 1.54-.501 2.39-2.161 1.88-3.708z"/><path d="m1155.25 158.723c-.51-1.547-2.17-2.394-3.71-1.892-1.55.501-2.39 2.161-1.89 3.708.51 1.546 2.17 2.393 3.71 1.891 1.55-.501 2.39-2.161 1.89-3.707z"/><path d="m1166.4 157.746c-.5-1.546-2.17-2.393-3.71-1.891-1.55.501-2.39 2.161-1.89 3.707.51 1.547 2.17 2.394 3.71 1.892 1.55-.501 2.39-2.161 1.89-3.708z"/><path d="m1128.74 342.082c-1.63-.07-3 1.191-3.06 2.815-.07 1.624 1.19 2.997 2.82 3.066 1.62.07 2.99-1.19 3.06-2.814.06-1.625-1.2-2.998-2.82-3.067z"/><path d="m1106.39 344.599c-1.62-.07-2.99 1.19-3.06 2.814-.06 1.625 1.2 2.998 2.82 3.067 1.63.07 3-1.191 3.06-2.815.07-1.624-1.19-2.997-2.82-3.066z"/><path d="m1117.55 343.043c-1.63-.069-3 1.191-3.07 2.815-.06 1.624 1.2 2.997 2.82 3.067 1.63.069 3-1.191 3.07-2.815.06-1.624-1.2-2.997-2.82-3.067z"/><path d="m1421.7 280.653c-.76-1.441-2.54-2-3.98-1.247-1.44.752-1.99 2.53-1.24 3.971.76 1.441 2.54 1.999 3.98 1.247s1.99-2.53 1.24-3.971z"/><path d="m1403.05 293.121c-.76-1.441-2.54-1.999-3.98-1.247s-1.99 2.53-1.24 3.971c.76 1.441 2.54 2 3.98 1.247 1.44-.752 1.99-2.53 1.24-3.971z"/><path d="m1412.26 286.656c-.76-1.441-2.54-1.999-3.98-1.247-1.44.753-1.99 2.531-1.24 3.972.76 1.441 2.54 1.999 3.98 1.246 1.44-.752 1.99-2.53 1.24-3.971z"/><path d="m947.166 465.171c-.983-1.296-2.804-1.57-4.066-.612-1.263.957-1.489 2.784-.505 4.08.983 1.295 2.804 1.57 4.066.612 1.263-.957 1.489-2.784.505-4.08z"/><path d="m939.604 486.206c-.983-1.295-2.804-1.57-4.066-.612-1.262.957-1.488 2.784-.505 4.08.984 1.296 2.804 1.57 4.067.612 1.262-.957 1.488-2.784.504-4.08z"/><path d="m943.175 475.601c-.983-1.295-2.804-1.57-4.066-.612-1.263.957-1.489 2.784-.505 4.08.983 1.296 2.804 1.57 4.066.612 1.263-.957 1.489-2.784.505-4.08z"/></g><path d="m1220.62 584.178c-16.59 4.674-14.99 26.265-14.99 26.265l11.53-.584c-2.16-12.472 12.47-20.22 12.47-20.22z" fill="#234feb"/><path d="m1029.01 267.42c7.57-25.021-21.28-40.592-21.28-40.592l-8.69 15.216c17.68 7.442 15.62 32.437 15.62 32.437z" fill="#234feb"/><path d="m1183.91 59.7362c-13.79 4.8517-11.3 23.0138-11.3 23.0138l9.73-1.1177c-2.49-10.44 9.47-17.7557 9.47-17.7557z" fill="#234feb"/><path d="m860.702 346.723c-13.793 4.852-11.304 23.014-11.304 23.014l9.729-1.118c-2.489-10.44 9.475-17.756 9.475-17.756z" fill="#234feb"/><path d="m1037.27 563.501c-13.79 4.852-11.31 23.014-11.31 23.014l9.73-1.118c-2.49-10.44 9.48-17.755 9.48-17.755z" fill="#ffbe27"/><path d="m908.254 609.046c2.362 14.428 20.702 15.114 20.702 15.114l.61-9.78c-10.719.635-15.851-12.421-15.851-12.421z" fill="#ffbe27"/><path d="m1337.52 712.938c7.57-25.02-21.29-40.591-21.29-40.591l-8.66 15.215c17.68 7.443 15.62 32.438 15.62 32.438z" fill="#ffbe27"/><path d="m1030.61.1454c-11.58-1.70191-16.56 12.1166-16.56 12.1166l7.32 2.8195c2.11-8.33168 13.33-9.09369 13.33-9.09369z" fill="#234feb"/><path d="m903.351 83.3342c6.478 9.7542 20.093 4.2421 20.093 4.2421l-2.769-7.3411c-7.62 3.9881-15.647-3.861-15.647-3.861z" fill="#ffbe27"/><path d="m1249.52 171.884c-16.58 4.674-14.98 26.265-14.98 26.265l11.53-.584c-2.16-12.472 12.47-20.219 12.47-20.219z" fill="#00ea19"/><path d="m1056.45 384.115c1.24 11.634 15.85 13.031 15.85 13.031l.91-7.798c-8.58 0-12.11-10.644-12.11-10.644z" fill="#00ea19"/><path d="m901.548 275.7c18.086-7.112 13.894-31.117 13.894-31.117l-12.878 1.931c3.81 13.742-11.736 24.08-11.736 24.08z" fill="#00ea19"/><path d="m1207.31 546.558c1.24 11.634 15.85 13.031 15.85 13.031l.91-7.798c-8.58 0-12.11-10.643-12.11-10.643z" fill="#00ea19"/><path d="m959.387 498.6c-11.583-1.701-16.562 12.117-16.562 12.117l7.316 2.82c2.108-8.332 13.336-9.094 13.336-9.094z" fill="#00ea19"/><path d="m1137.22 697.672c18.17 2.083 22.56-21.973 22.56-21.973l-11.89-4.343c-1.29 14.428-18.31 16.536-18.31 16.536z" fill="#00ea19"/><path d="m1049.56 125.68c.66-11.685-13.54-15.445-13.54-15.445l-2.18 7.545c8.48 1.371 10.21 12.472 10.21 12.472z" fill="#00ea19"/></g></svg>