<svg xmlns="http://www.w3.org/2000/svg" xmlns:xlink="http://www.w3.org/1999/xlink" fill="none" height="885" viewBox="0 0 1440 885" width="1440"><linearGradient id="a" gradientUnits="userSpaceOnUse" x1="965.645" x2="306.804" y1="309.616" y2="1090.79"><stop offset="0" stop-color="#011daa"/><stop offset="1" stop-color="#1077f7" stop-opacity=".4"/></linearGradient><path d="m1440 115.727c0-57.0369-69.06-85.4602-111.97-96.7121-60.49-15.86103-120.65-42.234-362.429 22.3178-72.014 19.23-246.335 70.7273-340.773 87.1013-636.3814 110.353-624.8137654 7.548-624.8137654 7.548v749.018h1439.9857654c0-.004 0-615.611 0-769.273z" fill="#011daa"/><path d="m1440 115.727c0-57.0369-69.06-85.4602-111.97-96.7121-60.49-15.86103-120.65-42.234-362.429 22.3178-72.014 19.23-246.335 70.7273-340.773 87.1013-636.3814 110.353-624.8137654 7.548-624.8137654 7.548v749.018h1439.9857654c0-.004 0-615.611 0-769.273z" fill="url(#a)"/></svg>