<svg xmlns:xlink="http://www.w3.org/1999/xlink" xmlns="http://www.w3.org/2000/svg" fill="none" height="446" viewBox="0 0 1110 446" width="1110"><rect fill="#234feb" height="446" rx="32" width="1110"/><g fill="#083ad3"><path d="m1016.33 0c-5.51 58.7972-27.407 96.5813-10.04 100.488 17.19 3.872 52.22-52.3953 65.88-100.488z"/><path d="m0 147.471c20.7254 30.581 61.1322 57.541 117.999 85.3 48.29 23.577-93.125-128.531-117.999-182.4668z"/><path d="m1110 212.782v-175.2561c-16.78 52.8943-48.76 131.9301-109.11 198.1191-63.029 69.14 2.4-55.889-34.582-44.479-36.978 11.402-96.625 132.774-226.026 166.642-129.401 33.869-281.363 22.313-341.28 12.727-59.918-9.586-53.141-16.28-30.157-20.677 22.993-4.398-103.798-18.415-244.088-85.481-52.4657-25.084-93.4755-57.137-124.757-84.543v266.166h1110v-26.615c-1.83-54.082-3.13-143.745-1.83-175.049.29-7.005.97-18.053 1.83-31.554z"/></g></svg>